<mxfile host="app.diagrams.net" agent="Mozilla/5.0 (Windows NT 10.0; Win64; x64) AppleWebKit/537.36 (KHTML, like Gecko) Chrome/135.0.0.0 Safari/537.36" version="26.2.13">
  <diagram name="UseCase №2" id="Mshwkk2sst54TGpNCO60">
    <mxGraphModel dx="1606" dy="823" grid="1" gridSize="10" guides="1" tooltips="1" connect="1" arrows="1" fold="1" page="1" pageScale="1" pageWidth="1169" pageHeight="827" math="0" shadow="0">
      <root>
        <mxCell id="0" />
        <mxCell id="1" parent="0" />
        <mxCell id="e__eiBCGz4oyPmcURb2Q-34" value="&lt;font style=&quot;color: light-dark(rgb(0, 0, 0), rgb(255, 255, 255));&quot;&gt;Диспетчер&lt;/font&gt;" style="shape=umlActor;verticalLabelPosition=bottom;verticalAlign=top;html=1;outlineConnect=0;fillColor=#60a917;fontColor=#ffffff;strokeColor=#2D7600;" vertex="1" parent="1">
          <mxGeometry x="360" y="50" width="30" height="60" as="geometry" />
        </mxCell>
        <mxCell id="e__eiBCGz4oyPmcURb2Q-35" value="Авторизація в системі" style="ellipse;whiteSpace=wrap;html=1;" vertex="1" parent="1">
          <mxGeometry x="470" y="85" width="146" height="40" as="geometry" />
        </mxCell>
        <mxCell id="e__eiBCGz4oyPmcURb2Q-36" value="Помилка авторизації" style="ellipse;whiteSpace=wrap;html=1;" vertex="1" parent="1">
          <mxGeometry x="690" y="80" width="140" height="50" as="geometry" />
        </mxCell>
        <mxCell id="e__eiBCGz4oyPmcURb2Q-37" value="e&lt;span style=&quot;background-color: light-dark(#ffffff, var(--ge-dark-color, #121212)); color: light-dark(rgb(0, 0, 0), rgb(255, 255, 255));&quot;&gt;xtend&lt;/span&gt;" style="html=1;verticalAlign=bottom;endArrow=block;curved=0;rounded=0;exitX=1;exitY=0.5;exitDx=0;exitDy=0;entryX=0;entryY=0.5;entryDx=0;entryDy=0;" edge="1" parent="1" source="e__eiBCGz4oyPmcURb2Q-35" target="e__eiBCGz4oyPmcURb2Q-36">
          <mxGeometry width="80" relative="1" as="geometry">
            <mxPoint x="375" y="365" as="sourcePoint" />
            <mxPoint x="377" y="415" as="targetPoint" />
          </mxGeometry>
        </mxCell>
        <mxCell id="e__eiBCGz4oyPmcURb2Q-38" value="" style="endArrow=classic;html=1;rounded=0;entryX=0;entryY=0.5;entryDx=0;entryDy=0;" edge="1" parent="1" source="e__eiBCGz4oyPmcURb2Q-34" target="e__eiBCGz4oyPmcURb2Q-35">
          <mxGeometry relative="1" as="geometry">
            <mxPoint x="410" y="90" as="sourcePoint" />
            <mxPoint x="510" y="90" as="targetPoint" />
          </mxGeometry>
        </mxCell>
        <mxCell id="e__eiBCGz4oyPmcURb2Q-39" value="Label" style="edgeLabel;resizable=0;html=1;;align=center;verticalAlign=middle;" connectable="0" vertex="1" parent="e__eiBCGz4oyPmcURb2Q-38">
          <mxGeometry relative="1" as="geometry" />
        </mxCell>
        <mxCell id="e__eiBCGz4oyPmcURb2Q-40" value="include&lt;div&gt;&lt;br&gt;&lt;/div&gt;" style="edgeLabel;html=1;align=center;verticalAlign=middle;resizable=0;points=[];" vertex="1" connectable="0" parent="e__eiBCGz4oyPmcURb2Q-38">
          <mxGeometry x="0.1314" y="2" relative="1" as="geometry">
            <mxPoint x="-1" as="offset" />
          </mxGeometry>
        </mxCell>
        <mxCell id="e__eiBCGz4oyPmcURb2Q-41" value="&#xa;Відображення транспортних засобів&#xa;&#xa;" style="ellipse;whiteSpace=wrap;html=1;" vertex="1" parent="1">
          <mxGeometry x="450" y="260" width="150" height="70" as="geometry" />
        </mxCell>
        <mxCell id="e__eiBCGz4oyPmcURb2Q-42" value="" style="endArrow=classic;html=1;rounded=0;entryX=0.5;entryY=0;entryDx=0;entryDy=0;" edge="1" parent="1" source="e__eiBCGz4oyPmcURb2Q-34" target="e__eiBCGz4oyPmcURb2Q-41">
          <mxGeometry width="50" height="50" relative="1" as="geometry">
            <mxPoint x="400" y="310" as="sourcePoint" />
            <mxPoint x="450" y="260" as="targetPoint" />
          </mxGeometry>
        </mxCell>
        <mxCell id="e__eiBCGz4oyPmcURb2Q-43" value="" style="endArrow=classic;html=1;rounded=0;exitX=0.5;exitY=1;exitDx=0;exitDy=0;" edge="1" parent="1" source="e__eiBCGz4oyPmcURb2Q-35" target="e__eiBCGz4oyPmcURb2Q-41">
          <mxGeometry relative="1" as="geometry">
            <mxPoint x="400" y="94" as="sourcePoint" />
            <mxPoint x="480" y="115" as="targetPoint" />
          </mxGeometry>
        </mxCell>
        <mxCell id="e__eiBCGz4oyPmcURb2Q-44" value="include" style="edgeLabel;resizable=0;html=1;;align=center;verticalAlign=middle;" connectable="0" vertex="1" parent="e__eiBCGz4oyPmcURb2Q-43">
          <mxGeometry relative="1" as="geometry" />
        </mxCell>
        <mxCell id="e__eiBCGz4oyPmcURb2Q-45" value="&#xa;Оцінка проблем на маршруті&#xa;&#xa;" style="ellipse;whiteSpace=wrap;html=1;rotation=0;" vertex="1" parent="1">
          <mxGeometry x="400" y="390" width="120" height="70" as="geometry" />
        </mxCell>
        <mxCell id="e__eiBCGz4oyPmcURb2Q-46" value="" style="endArrow=classic;html=1;rounded=0;exitX=0.303;exitY=1.032;exitDx=0;exitDy=0;entryX=1;entryY=0.5;entryDx=0;entryDy=0;exitPerimeter=0;" edge="1" parent="1" source="e__eiBCGz4oyPmcURb2Q-41" target="e__eiBCGz4oyPmcURb2Q-45">
          <mxGeometry relative="1" as="geometry">
            <mxPoint x="324" y="380" as="sourcePoint" />
            <mxPoint x="424" y="380" as="targetPoint" />
          </mxGeometry>
        </mxCell>
        <mxCell id="e__eiBCGz4oyPmcURb2Q-47" value="extend" style="edgeLabel;resizable=0;html=1;;align=center;verticalAlign=middle;" connectable="0" vertex="1" parent="e__eiBCGz4oyPmcURb2Q-46">
          <mxGeometry relative="1" as="geometry" />
        </mxCell>
        <mxCell id="e__eiBCGz4oyPmcURb2Q-48" value="Помилка в роботі сервера" style="ellipse;whiteSpace=wrap;html=1;" vertex="1" parent="1">
          <mxGeometry x="640" y="320" width="130" height="80" as="geometry" />
        </mxCell>
        <mxCell id="e__eiBCGz4oyPmcURb2Q-49" value="e&lt;span style=&quot;background-color: light-dark(#ffffff, var(--ge-dark-color, #121212)); color: light-dark(rgb(0, 0, 0), rgb(255, 255, 255));&quot;&gt;xtend&lt;/span&gt;" style="html=1;verticalAlign=bottom;endArrow=block;curved=0;rounded=0;exitX=1;exitY=1;exitDx=0;exitDy=0;entryX=0.5;entryY=0;entryDx=0;entryDy=0;" edge="1" parent="1" source="e__eiBCGz4oyPmcURb2Q-41" target="e__eiBCGz4oyPmcURb2Q-48">
          <mxGeometry width="80" relative="1" as="geometry">
            <mxPoint x="499" y="290" as="sourcePoint" />
            <mxPoint x="573" y="290" as="targetPoint" />
          </mxGeometry>
        </mxCell>
        <mxCell id="e__eiBCGz4oyPmcURb2Q-50" value="&#xa;Двофакторна автентифікація&#xa;&#xa;" style="ellipse;whiteSpace=wrap;html=1;" vertex="1" parent="1">
          <mxGeometry x="616" y="160" width="120" height="80" as="geometry" />
        </mxCell>
        <mxCell id="e__eiBCGz4oyPmcURb2Q-51" value="" style="endArrow=classic;html=1;rounded=0;exitX=1;exitY=1;exitDx=0;exitDy=0;entryX=0;entryY=0;entryDx=0;entryDy=0;" edge="1" parent="1" source="e__eiBCGz4oyPmcURb2Q-35" target="e__eiBCGz4oyPmcURb2Q-50">
          <mxGeometry relative="1" as="geometry">
            <mxPoint x="553" y="135" as="sourcePoint" />
            <mxPoint x="425" y="273" as="targetPoint" />
          </mxGeometry>
        </mxCell>
        <mxCell id="e__eiBCGz4oyPmcURb2Q-52" value="include" style="edgeLabel;resizable=0;html=1;;align=center;verticalAlign=middle;" connectable="0" vertex="1" parent="e__eiBCGz4oyPmcURb2Q-51">
          <mxGeometry relative="1" as="geometry" />
        </mxCell>
        <mxCell id="e__eiBCGz4oyPmcURb2Q-53" value="&#xa;Отримання інформації про затори та аварії&#xa;&#xa;" style="ellipse;whiteSpace=wrap;html=1;" vertex="1" parent="1">
          <mxGeometry x="190" y="230" width="130" height="60" as="geometry" />
        </mxCell>
        <mxCell id="e__eiBCGz4oyPmcURb2Q-54" value="" style="endArrow=classic;html=1;rounded=0;exitX=0;exitY=0.5;exitDx=0;exitDy=0;" edge="1" parent="1" source="e__eiBCGz4oyPmcURb2Q-41" target="e__eiBCGz4oyPmcURb2Q-53">
          <mxGeometry width="50" height="50" relative="1" as="geometry">
            <mxPoint x="387" y="120" as="sourcePoint" />
            <mxPoint x="395" y="270" as="targetPoint" />
          </mxGeometry>
        </mxCell>
        <mxCell id="e__eiBCGz4oyPmcURb2Q-55" value="&#xa;Оновлення маршруту&#xa;&#xa;" style="ellipse;whiteSpace=wrap;html=1;" vertex="1" parent="1">
          <mxGeometry x="270" y="150" width="100" height="60" as="geometry" />
        </mxCell>
        <mxCell id="e__eiBCGz4oyPmcURb2Q-56" value="" style="endArrow=classic;html=1;rounded=0;exitX=0.27;exitY=0.032;exitDx=0;exitDy=0;entryX=1;entryY=0;entryDx=0;entryDy=0;exitPerimeter=0;" edge="1" parent="1" source="e__eiBCGz4oyPmcURb2Q-41" target="e__eiBCGz4oyPmcURb2Q-55">
          <mxGeometry width="50" height="50" relative="1" as="geometry">
            <mxPoint x="395" y="340" as="sourcePoint" />
            <mxPoint x="365" y="430" as="targetPoint" />
          </mxGeometry>
        </mxCell>
        <mxCell id="e__eiBCGz4oyPmcURb2Q-57" value="Водії&amp;nbsp;" style="shape=umlActor;verticalLabelPosition=bottom;verticalAlign=top;html=1;outlineConnect=0;" vertex="1" parent="1">
          <mxGeometry x="50" y="50" width="30" height="60" as="geometry" />
        </mxCell>
        <mxCell id="e__eiBCGz4oyPmcURb2Q-58" value="" style="endArrow=classic;html=1;rounded=0;entryX=0;entryY=0;entryDx=0;entryDy=0;" edge="1" parent="1" source="e__eiBCGz4oyPmcURb2Q-57" target="e__eiBCGz4oyPmcURb2Q-53">
          <mxGeometry width="50" height="50" relative="1" as="geometry">
            <mxPoint x="400" y="530" as="sourcePoint" />
            <mxPoint x="450" y="480" as="targetPoint" />
          </mxGeometry>
        </mxCell>
        <mxCell id="e__eiBCGz4oyPmcURb2Q-59" value="" style="endArrow=classic;html=1;rounded=0;entryX=0;entryY=0;entryDx=0;entryDy=0;" edge="1" parent="1" source="e__eiBCGz4oyPmcURb2Q-57" target="e__eiBCGz4oyPmcURb2Q-55">
          <mxGeometry width="50" height="50" relative="1" as="geometry">
            <mxPoint x="190" y="594" as="sourcePoint" />
            <mxPoint x="240" y="544" as="targetPoint" />
          </mxGeometry>
        </mxCell>
        <mxCell id="e__eiBCGz4oyPmcURb2Q-60" value="" style="endArrow=classic;html=1;rounded=0;" edge="1" parent="1" source="e__eiBCGz4oyPmcURb2Q-34" target="e__eiBCGz4oyPmcURb2Q-57">
          <mxGeometry width="50" height="50" relative="1" as="geometry">
            <mxPoint x="294" y="125" as="sourcePoint" />
            <mxPoint x="273" y="245" as="targetPoint" />
          </mxGeometry>
        </mxCell>
        <mxCell id="e__eiBCGz4oyPmcURb2Q-61" value="&#xa;Система моніторингу&#xa;&#xa;" style="ellipse;whiteSpace=wrap;html=1;" vertex="1" parent="1">
          <mxGeometry x="150" y="350" width="120" height="50" as="geometry" />
        </mxCell>
        <mxCell id="e__eiBCGz4oyPmcURb2Q-62" value="" style="endArrow=classic;html=1;rounded=0;exitX=0;exitY=1;exitDx=0;exitDy=0;" edge="1" parent="1" source="e__eiBCGz4oyPmcURb2Q-53" target="e__eiBCGz4oyPmcURb2Q-61">
          <mxGeometry relative="1" as="geometry">
            <mxPoint x="314" y="340" as="sourcePoint" />
            <mxPoint x="300" y="475" as="targetPoint" />
          </mxGeometry>
        </mxCell>
        <mxCell id="e__eiBCGz4oyPmcURb2Q-63" value="include" style="edgeLabel;resizable=0;html=1;;align=center;verticalAlign=middle;" connectable="0" vertex="1" parent="e__eiBCGz4oyPmcURb2Q-62">
          <mxGeometry relative="1" as="geometry" />
        </mxCell>
        <mxCell id="e__eiBCGz4oyPmcURb2Q-64" style="edgeStyle=orthogonalEdgeStyle;rounded=0;orthogonalLoop=1;jettySize=auto;html=1;exitX=0.5;exitY=1;exitDx=0;exitDy=0;" edge="1" parent="1" source="e__eiBCGz4oyPmcURb2Q-61" target="e__eiBCGz4oyPmcURb2Q-61">
          <mxGeometry relative="1" as="geometry" />
        </mxCell>
        <mxCell id="e__eiBCGz4oyPmcURb2Q-65" value="" style="endArrow=classic;html=1;rounded=0;exitX=0;exitY=1;exitDx=0;exitDy=0;entryX=1;entryY=0;entryDx=0;entryDy=0;" edge="1" parent="1" source="e__eiBCGz4oyPmcURb2Q-41" target="e__eiBCGz4oyPmcURb2Q-61">
          <mxGeometry relative="1" as="geometry">
            <mxPoint x="219" y="291" as="sourcePoint" />
            <mxPoint x="220" y="360" as="targetPoint" />
          </mxGeometry>
        </mxCell>
        <mxCell id="e__eiBCGz4oyPmcURb2Q-66" value="include" style="edgeLabel;resizable=0;html=1;;align=center;verticalAlign=middle;" connectable="0" vertex="1" parent="e__eiBCGz4oyPmcURb2Q-65">
          <mxGeometry relative="1" as="geometry" />
        </mxCell>
      </root>
    </mxGraphModel>
  </diagram>
</mxfile>
